<svg width="250" height="90" viewBox="0 0 250 90" fill="none" xmlns="http://www.w3.org/2000/svg">
<path d="M135.062 25.7075H132.379L133.72 21.9322L135.062 25.7075ZM139.025 29.7636L134.718 19.1562H132.738L128.432 29.7636H130.943L131.708 27.6268H135.749L136.512 29.7636H139.025Z" fill="#009999"/>
<path d="M143.158 29.7636H149.304V27.6422H145.498V19.1562H143.158V29.7636Z" fill="#009999"/>
<path d="M156.246 25.9729H157.884C159.6 25.9729 161.128 24.7091 161.128 22.5569C161.128 20.5446 159.6 19.1562 157.884 19.1562H153.906V29.7636H156.246V25.9729ZM157.494 20.9969C158.181 20.9969 158.898 21.5891 158.898 22.5569C158.898 23.5707 158.181 24.1322 157.494 24.1322H156.246V20.9969H157.494Z" fill="#009999"/>
<path d="M171.253 19.1562V23.3829H167.759V19.1562H165.419V29.7636H167.759V25.5053H171.253V29.7636H173.749V19.1562H171.253Z" fill="#009999"/>
<path d="M184.513 25.7075H181.83L183.171 21.9322L184.513 25.7075ZM188.476 29.7636L184.17 19.1562H182.189L177.883 29.7636H180.394L181.159 27.6268H185.2L185.963 29.7636H188.476Z" fill="#009999"/>
<path d="M96.292 44.41H93.609L94.9505 40.6346L96.292 44.41ZM100.255 48.4661L95.9489 37.8586H93.9683L89.6621 48.4661H92.1736L92.9382 46.3293H96.979L97.7427 48.4661H100.255Z" fill="#009999"/>
<path d="M110.581 37.8586V43.9893C110.581 45.4554 110.144 46.2823 108.537 46.2823C106.947 46.2823 106.494 45.4554 106.494 43.9893V37.8586H104.154V44.3323C104.154 47.1553 105.777 48.6223 108.537 48.6223C111.299 48.6223 112.921 47.1553 112.921 44.3323V37.8586H110.581Z" fill="#009999"/>
<path d="M122.188 39.9801H125.214V37.8586H116.821V39.9801H119.848V48.4661H122.188V39.9801Z" fill="#009999"/>
<path d="M137.538 43.147C137.538 44.7846 136.056 46.2823 134.418 46.2823C132.779 46.2823 131.298 44.7846 131.298 43.147C131.298 41.5085 132.779 40.0271 134.418 40.0271C136.056 40.0271 137.538 41.5085 137.538 43.147ZM139.878 43.1624C139.878 40.2293 137.35 37.7025 134.418 37.7025C131.485 37.7025 128.958 40.2293 128.958 43.1624C128.958 46.0945 131.485 48.6223 134.418 48.6223C137.35 48.6223 139.878 46.0945 139.878 43.1624Z" fill="#009999"/>
<path d="M157.708 48.4661L155.649 37.8586H152.872L150.673 45.2992L148.457 37.8586H145.68L143.621 48.4661H146.196L147.443 41.1501L149.518 48.4661H151.811L153.886 41.1501L155.134 48.4661H157.708Z" fill="#009999"/>
<path d="M167.613 44.41H164.93L166.272 40.6346L167.613 44.41ZM171.576 48.4661L167.27 37.8586H165.29L160.983 48.4661H163.495L164.26 46.3293H168.3L169.064 48.4661H171.576Z" fill="#009999"/>
<path d="M180.218 39.9801H183.245V37.8586H174.852V39.9801H177.879V48.4661H180.218V39.9801Z" fill="#009999"/>
<path d="M189.719 48.4661V37.8586H187.379V48.4661H189.719Z" fill="#009999"/>
<path d="M202.901 43.147C202.901 44.7846 201.419 46.2823 199.781 46.2823C198.143 46.2823 196.661 44.7846 196.661 43.147C196.661 41.5085 198.143 40.0271 199.781 40.0271C201.419 40.0271 202.901 41.5085 202.901 43.147ZM205.241 43.1624C205.241 40.2293 202.713 37.7025 199.781 37.7025C196.848 37.7025 194.321 40.2293 194.321 43.1624C194.321 46.0945 196.848 48.6223 199.781 48.6223C202.713 48.6223 205.241 46.0945 205.241 43.1624Z" fill="#009999"/>
<path d="M218.173 48.4661V37.8586H215.833V44.4723L212.183 37.8586H209.843V48.4661H212.183V41.8516L215.833 48.4661H218.173Z" fill="#009999"/>
<path fill-rule="evenodd" clip-rule="evenodd" d="M135.533 29.1309L134.192 25.3764L134.852 25.1405L136.193 28.8951L135.533 29.1309Z" fill="white"/>
<path fill-rule="evenodd" clip-rule="evenodd" d="M96.6201 47.4079L95.1486 43.3302L95.8055 43.0931L97.277 47.1709L96.6201 47.4079Z" fill="white"/>
<path fill-rule="evenodd" clip-rule="evenodd" d="M168.324 48.4479L166.853 44.3702L167.51 44.1331L168.981 48.2109L168.324 48.4479Z" fill="white"/>
<path fill-rule="evenodd" clip-rule="evenodd" d="M185.007 29.1786L183.612 25.2588L184.268 25.025L185.664 28.9448L185.007 29.1786Z" fill="white"/>
<path d="M137.378 60.6859C138.407 60.6859 139.469 61.1074 139.983 62.2305H142.557C141.824 60.0305 139.718 58.5021 137.378 58.5021C134.383 58.5021 131.918 60.9666 131.918 63.962C131.918 66.9573 134.383 69.4219 137.378 69.4219C140.404 69.4219 142.822 66.9727 142.822 63.962V63.6027H137.596V65.3658H140.295C139.718 66.9727 138.407 67.3004 137.378 67.3004C135.693 67.3004 134.29 65.7874 134.29 63.9927C134.29 62.1989 135.693 60.6859 137.378 60.6859Z" fill="#009999"/>
<path d="M160.652 69.2657L158.593 58.6583H155.816L153.617 66.0988L151.402 58.6583H148.625L146.565 69.2657H149.14L150.388 61.9497L152.462 69.2657H154.755L156.831 61.9497L158.078 69.2657H160.652Z" fill="#009999"/>
<path d="M169.904 66.1611C169.904 66.8635 169.311 67.4403 168.609 67.4403H167.127V64.8819H168.609C169.311 64.8819 169.904 65.475 169.904 66.1611ZM169.17 61.7313C169.17 62.402 168.609 62.9635 167.938 62.9635H167.127V60.499H167.938C168.609 60.499 169.17 61.0443 169.17 61.7313ZM172.29 66.2234C172.29 64.7889 171.323 63.8374 170.138 63.5567C170.933 63.1974 171.402 62.3867 171.402 61.3097C171.402 59.8589 170.247 58.6583 168.437 58.6583H164.787V69.2657H169.077C171.105 69.2657 172.29 68.0488 172.29 66.2234Z" fill="#009999"/>
<path d="M182.337 58.6583V62.885H178.842V58.6583H176.502V69.2657H178.842V65.0074H182.337V69.2657H184.832V58.6583H182.337Z" fill="#009999"/>
<g clip-path="url(#clip0_3_2)">
<mask id="mask0_3_2" style="mask-type:luminance" maskUnits="userSpaceOnUse" x="11" y="51" width="13" height="14">
<path d="M11.8643 51.3284H23.9766V64.3661H11.8643V51.3284Z" fill="white"/>
</mask>
<g mask="url(#mask0_3_2)">
<mask id="mask1_3_2" style="mask-type:luminance" maskUnits="userSpaceOnUse" x="11" y="51" width="13" height="14">
<path d="M18.3901 54.5196C20.1757 55.1606 19.4481 55.7501 19.3615 55.6986C19.2748 55.6463 19.4996 54.9186 19.6386 54.572C19.7767 54.2425 19.9501 53.9996 20.2101 53.653C20.6091 53.1158 21.4757 52.0758 21.8919 51.7292C22.0824 51.5558 22.1862 51.4692 22.3767 51.4168C22.6024 51.3473 22.9833 51.3473 23.209 51.4168C23.3995 51.4692 23.5557 51.5901 23.6767 51.7463C23.8157 51.9368 23.9367 52.3006 23.9547 52.5435C23.9719 52.752 23.8852 52.9596 23.8157 53.0987C23.7633 53.2025 23.7462 53.2539 23.6424 53.3234C23.4347 53.4625 22.7586 53.393 22.4633 53.6358C22.1347 53.913 22.1862 54.4158 21.8224 54.9529C21.1119 56.0101 18.6329 58.2986 17.9225 59.2338C17.6101 59.65 17.6101 59.8233 17.3158 60.2052C16.7958 60.8633 15.5482 61.9557 14.9415 62.6833C14.5082 63.2033 14.2825 63.8099 13.9187 64.0699C13.6759 64.2604 13.4159 64.3471 13.1559 64.3471C12.8959 64.3471 12.5835 64.209 12.393 64.1051C12.2549 64.0356 12.1854 63.9661 12.0987 63.8271C11.9949 63.6366 11.8902 63.2728 11.873 63.0471C11.873 62.8918 11.873 62.7871 11.9426 62.649C12.0292 62.4585 12.2026 62.1461 12.4454 62.0252C12.7397 61.869 13.312 61.8166 13.6235 61.9204C13.8835 62.0071 14.1092 62.2852 14.2302 62.4585C14.3168 62.5795 14.3692 62.6833 14.3692 62.8395C14.3692 63.1166 14.1787 63.7404 14.0225 63.9661C13.9359 64.1051 13.832 64.1566 13.693 64.209C13.4854 64.2956 13.1387 64.3651 12.8959 64.3128C12.6359 64.2604 12.3416 64.0871 12.1854 63.9318C12.0816 63.8271 12.0292 63.7061 11.9769 63.5851C11.9254 63.4633 11.873 63.3423 11.873 63.1861C11.873 62.9785 11.8902 62.7356 12.0635 62.4061C12.4797 61.6261 14.3692 59.9967 15.2358 58.9567C15.8949 58.1595 16.3796 57.2405 16.8653 56.7205C17.1768 56.3919 17.5234 56.3053 17.7491 56.0272C17.9748 55.7672 17.992 55.4386 18.252 55.1091C18.6501 54.6063 19.6034 53.913 20.0548 53.4101C20.3662 53.0635 20.4881 52.7339 20.7653 52.4396C21.0596 52.1453 21.4062 51.8501 21.77 51.6597C22.1347 51.4863 22.6195 51.3301 22.9319 51.3473C23.1395 51.3654 23.3128 51.452 23.469 51.5558C23.6252 51.6597 23.7633 51.7987 23.8328 51.9892C23.9367 52.2663 23.9719 52.6996 23.8157 53.0987C23.5557 53.7396 22.0995 54.5539 21.77 55.1786C21.5624 55.5424 21.7014 55.8891 21.5452 56.2005C21.3891 56.5301 21.1634 56.9462 20.8348 57.1024C20.4881 57.2757 19.9681 57.1539 19.4653 57.0672C18.8063 56.9462 17.6625 56.6167 17.2815 56.2701C17.073 56.0624 17.0034 55.8196 16.9863 55.5767C16.9691 55.352 17.0901 55.0396 17.212 54.8663C17.3158 54.7272 17.4548 54.6234 17.6282 54.5539C17.8358 54.4853 18.3901 54.5196 18.3901 54.5196Z" fill="white"/>
</mask>
<g mask="url(#mask1_3_2)">
<path d="M11.1797 50.654H24.648V65.0404H11.1797V50.654Z" fill="#009999"/>
</g>
</g>
<mask id="mask2_3_2" style="mask-type:luminance" maskUnits="userSpaceOnUse" x="-7" y="3" width="84" height="73">
<path d="M-6.06738 3.17773H76.9001V75.052H-6.06738V3.17773Z" fill="white"/>
</mask>
<g mask="url(#mask2_3_2)">
<mask id="mask3_3_2" style="mask-type:luminance" maskUnits="userSpaceOnUse" x="-6" y="3" width="104" height="108">
<path d="M97.427 39.374L56.318 110.48L-5.90039 74.5095L35.2087 3.40344L97.427 39.374Z" fill="white"/>
</mask>
<g mask="url(#mask3_3_2)">
<mask id="mask4_3_2" style="mask-type:luminance" maskUnits="userSpaceOnUse" x="-6" y="3" width="83" height="72">
<path d="M76.8729 74.9266L-5.90039 74.5095L35.2087 3.40344L76.8729 74.9266Z" fill="white"/>
</mask>
<g mask="url(#mask4_3_2)">
<path d="M97.427 39.374L56.318 110.48L-5.90039 74.5095L35.2087 3.40344L97.427 39.374Z" fill="#009999"/>
</g>
</g>
</g>
<path fill-rule="evenodd" clip-rule="evenodd" d="M18.881 49.3476L-0.0111604 82.4726L-9.80271 76.8883L9.08941 43.7632L18.881 49.3476Z" fill="white"/>
<mask id="mask5_3_2" style="mask-type:luminance" maskUnits="userSpaceOnUse" x="12" y="24" width="46" height="40">
<path d="M12.6523 24.9018H57.9493V63.9589H12.6523V24.9018Z" fill="white"/>
</mask>
<g mask="url(#mask5_3_2)">
<mask id="mask6_3_2" style="mask-type:luminance" maskUnits="userSpaceOnUse" x="12" y="24" width="58" height="60">
<path d="M69.0683 44.5513L46.6545 83.3204L12.7314 63.7079L35.1452 24.9397L69.0683 44.5513Z" fill="white"/>
</mask>
<g mask="url(#mask6_3_2)">
<mask id="mask7_3_2" style="mask-type:luminance" maskUnits="userSpaceOnUse" x="12" y="24" width="46" height="40">
<path d="M57.8614 63.9354L12.7314 63.7079L35.1452 24.9397L57.8614 63.9354Z" fill="white"/>
</mask>
<g mask="url(#mask7_3_2)">
<path d="M69.0683 44.5513L46.6545 83.3204L12.7314 63.7079L35.1452 24.9397L69.0683 44.5513Z" fill="#009999"/>
</g>
</g>
</g>
<path fill-rule="evenodd" clip-rule="evenodd" d="M14.7759 41.028H30.8965V49.6887H14.7759V41.028Z" fill="#009999"/>
<mask id="mask8_3_2" style="mask-type:luminance" maskUnits="userSpaceOnUse" x="8" y="39" width="13" height="11">
<path d="M8.46875 39.4245H20.1992V49.6889H8.46875V39.4245Z" fill="white"/>
</mask>
<g mask="url(#mask8_3_2)">
<mask id="mask9_3_2" style="mask-type:luminance" maskUnits="userSpaceOnUse" x="8" y="39" width="13" height="11">
<path d="M14.334 39.4245L8.46875 49.6889H20.1992L14.334 39.4245Z" fill="white"/>
</mask>
<g mask="url(#mask9_3_2)">
<path d="M20.1992 49.6889H8.46875V39.4245H20.1992V49.6889Z" fill="#009999"/>
</g>
</g>
<path fill-rule="evenodd" clip-rule="evenodd" d="M10.8416 78.8463L3.75404 74.8272L6.05564 70.7684L13.1432 74.7875L10.8416 78.8463Z" fill="white"/>
<path fill-rule="evenodd" clip-rule="evenodd" d="M12.4383 53.3099L11.0517 73.8902L4.6458 73.4586L6.03244 52.8783L12.4383 53.3099Z" fill="white"/>
<path fill-rule="evenodd" clip-rule="evenodd" d="M18.8901 40.3226L6.12594 74.5978L5.47679 74.356L18.241 40.0809L18.8901 40.3226Z" fill="#009999"/>
<path fill-rule="evenodd" clip-rule="evenodd" d="M34.0409 41.5534H17.3994V40.8596H34.0409V41.5534Z" fill="#009999"/>
<path fill-rule="evenodd" clip-rule="evenodd" d="M45.3697 44.0125L35.4393 57.795L26.5654 51.4013L36.4958 37.6189L45.3697 44.0125Z" fill="white"/>
<path fill-rule="evenodd" clip-rule="evenodd" d="M34.2796 41.2994L5.74056 74.8226L5.2129 74.3733L33.7519 40.8502L34.2796 41.2994Z" fill="#009999"/>
<path fill-rule="evenodd" clip-rule="evenodd" d="M17.2919 70.346L12.7862 77.7496L12.1953 77.39L16.701 69.9864L17.2919 70.346Z" fill="white"/>
<path fill-rule="evenodd" clip-rule="evenodd" d="M14.3849 68.2356L13.5715 74.5983L12.8882 74.5109L13.7016 68.1483L14.3849 68.2356Z" fill="white"/>
<mask id="mask10_3_2" style="mask-type:luminance" maskUnits="userSpaceOnUse" x="6" y="71" width="2" height="2">
<path d="M6.94629 71.4825H7.62968V72.2002H6.94629V71.4825Z" fill="white"/>
</mask>
<g mask="url(#mask10_3_2)">
<mask id="mask11_3_2" style="mask-type:luminance" maskUnits="userSpaceOnUse" x="6" y="71" width="2" height="2">
<path d="M7.62713 71.7316C7.33283 72.1993 7.05569 72.1126 7.00333 72.0088C6.95096 71.905 7.00333 71.6269 7.08999 71.5583C7.17666 71.4888 7.54047 71.5755 7.54047 71.5755" fill="white"/>
</mask>
<g mask="url(#mask11_3_2)">
<path d="M6.31055 70.865H8.321V72.8402H6.31055V70.865Z" fill="#009999"/>
</g>
</g>
<mask id="mask12_3_2" style="mask-type:luminance" maskUnits="userSpaceOnUse" x="6" y="71" width="2" height="2">
<path d="M6.68652 71.8165H7.36991V72.4945H6.68652V71.8165Z" fill="white"/>
</mask>
<g mask="url(#mask12_3_2)">
<mask id="mask13_3_2" style="mask-type:luminance" maskUnits="userSpaceOnUse" x="6" y="71" width="2" height="2">
<path d="M7.36737 72.0088C7.09022 72.4936 6.79592 72.4069 6.74356 72.3031C6.6912 72.1993 6.74356 71.9221 6.83022 71.8526C6.91689 71.7831 7.29786 71.8698 7.29786 71.8698" fill="white"/>
</mask>
<g mask="url(#mask13_3_2)">
<path d="M6.05078 71.1593H8.06123V73.1354H6.05078V71.1593Z" fill="#009999"/>
</g>
</g>
<mask id="mask14_3_2" style="mask-type:luminance" maskUnits="userSpaceOnUse" x="15" y="46" width="9" height="10">
<path d="M15.0059 46.3306H23.5144V55.1633H15.0059V46.3306Z" fill="white"/>
</mask>
<g mask="url(#mask14_3_2)">
<mask id="mask15_3_2" style="mask-type:luminance" maskUnits="userSpaceOnUse" x="15" y="46" width="9" height="10">
<path d="M23.0887 51.1225C19.7954 54.9005 18.0441 54.9529 17.0908 54.5367C16.2422 54.1729 15.5136 53.0291 15.2193 52.3006C15.0108 51.7634 15.0108 51.2435 15.0975 50.7406C15.1841 50.2387 15.4098 49.7187 15.7222 49.3197C16.0336 48.9206 16.5708 48.5568 16.9355 48.3492C17.1955 48.2102 17.386 48.1407 17.6803 48.1064C18.0965 48.054 18.8241 48.0721 19.2402 48.1759C19.5355 48.2454 19.7088 48.314 19.9507 48.4873C20.2974 48.7302 20.8354 49.233 21.0774 49.5797C21.2507 49.8225 21.3374 49.9958 21.4069 50.2901C21.5107 50.7063 21.5631 51.4168 21.5459 51.8853C21.5288 52.2663 21.4764 52.5958 21.3726 52.9253C21.2688 53.2539 21.0954 53.5834 20.8869 53.8606C20.6793 54.1386 20.4193 54.3986 20.1241 54.5891C19.8469 54.7796 19.5002 54.9358 19.1707 55.0224C18.8421 55.1091 18.4603 55.1605 18.1136 55.1434C17.7669 55.1262 17.4031 55.0396 17.0908 54.9186C16.7622 54.7796 16.4498 54.5891 16.1898 54.3634C15.9298 54.1386 15.687 53.8606 15.5136 53.5663C15.3403 53.272 15.1841 52.9253 15.1155 52.5958C15.046 52.2491 15.0289 51.8853 15.0632 51.5387C15.0975 51.192 15.2022 50.8273 15.3403 50.5158C15.4793 50.2035 15.687 49.892 15.9298 49.6492C16.1727 49.3892 16.467 49.1635 16.7793 49.0073C17.0908 48.852 17.4203 48.7302 17.7669 48.6787C18.1136 48.6263 18.4774 48.6263 18.8241 48.6787C19.1707 48.7302 19.5002 48.8692 19.8126 49.0254C20.1241 49.1806 20.4193 49.4063 20.6621 49.6492C20.904 49.9092 21.1126 50.2206 21.2507 50.533C21.3897 50.8453 21.4935 51.192 21.5288 51.5387C21.5631 51.8853 21.5459 52.2491 21.4764 52.5958C21.4069 52.9253 21.2507 53.272 21.0774 53.5663C20.904 53.8606 20.6621 54.1386 20.4021 54.3634C20.1421 54.5891 19.8298 54.7796 19.5002 54.9186C19.1888 55.0396 18.8241 55.1262 18.4774 55.1434C18.1308 55.1605 17.7498 55.1091 17.4203 55.0224C17.0908 54.9358 16.7441 54.7796 16.467 54.5891C16.1727 54.3986 15.9127 54.1386 15.7041 53.8606C15.4965 53.5834 15.3232 53.2539 15.2193 52.9253C15.1155 52.5958 15.0108 51.9025 15.046 51.8853C15.0632 51.8853 15.1841 52.3006 15.2193 52.3006C15.2708 52.2834 15.0108 51.2435 15.0975 50.7406C15.1841 50.2387 15.4098 49.7187 15.7222 49.3197C16.0336 48.9206 16.5708 48.5568 16.9355 48.3492C17.1955 48.2102 17.386 48.1407 17.6803 48.1064C18.0965 48.054 18.8241 48.0721 19.2402 48.1759C19.5355 48.2454 19.7088 48.314 19.9507 48.4873C20.2974 48.7302 20.8354 49.233 21.0774 49.5797C21.2507 49.8225 21.4069 50.2901 21.4069 50.2901C21.4069 50.2901 21.3897 50.0301 21.2507 49.9092C20.8002 49.493 17.4203 49.233 17.2126 48.6263C17.0908 48.2625 17.8021 47.673 18.0793 47.3607C18.2869 47.1359 18.4088 47.014 18.6688 46.8759C19.0326 46.6674 19.6907 46.4426 20.1069 46.3902C20.4021 46.3559 20.5926 46.3559 20.8697 46.4254C21.2688 46.5121 21.8754 46.7197 22.2564 47.014C22.6554 47.3092 23.0021 47.7425 23.2097 48.193C23.4173 48.6263 23.522 49.1806 23.504 49.6663C23.4868 50.152 23.0887 51.1225 23.0887 51.1225Z" fill="white"/>
</mask>
<g mask="url(#mask15_3_2)">
<path d="M14.3525 45.6969H24.1972V55.8367H14.3525V45.6969Z" fill="#009999"/>
</g>
</g>
<mask id="mask16_3_2" style="mask-type:luminance" maskUnits="userSpaceOnUse" x="12" y="54" width="7" height="7">
<path d="M12.4551 54.1224H18.6101V60.439H12.4551V54.1224Z" fill="white"/>
</mask>
<g mask="url(#mask16_3_2)">
<mask id="mask17_3_2" style="mask-type:luminance" maskUnits="userSpaceOnUse" x="12" y="54" width="7" height="7">
<path d="M18.5823 56.3567C18.5995 58.3329 18.3566 58.8357 18.0623 59.2167C17.7671 59.5986 17.3166 59.9452 16.8833 60.1357C16.45 60.3262 15.9129 60.43 15.4272 60.3957C14.9424 60.3605 14.4043 60.2052 13.9891 59.9624C13.5729 59.7195 13.1739 59.3205 12.931 58.9052C12.6891 58.4891 12.5329 57.9691 12.4977 57.4834C12.4634 56.9986 12.5672 56.4606 12.7577 56.0101C12.9491 55.5768 13.2957 55.1263 13.6767 54.832C14.0577 54.5368 14.5605 54.312 15.0462 54.2253C15.5138 54.1387 16.069 54.173 16.5367 54.312C17.0043 54.4501 17.8195 55.0739 17.8195 55.0739" fill="white"/>
</mask>
<g mask="url(#mask17_3_2)">
<path d="M11.8047 53.532H19.3798V61.089H11.8047V53.532Z" fill="#009999"/>
</g>
</g>
<mask id="mask18_3_2" style="mask-type:luminance" maskUnits="userSpaceOnUse" x="17" y="48" width="7" height="8">
<path d="M17.082 48.8024H23.2226V55.1335H17.082V48.8024Z" fill="white"/>
</mask>
<g mask="url(#mask18_3_2)">
<mask id="mask19_3_2" style="mask-type:luminance" maskUnits="userSpaceOnUse" x="17" y="48" width="7" height="8">
<path d="M23.2096 51.053C23.2096 53.012 22.9839 53.514 22.6896 53.8958C22.3953 54.2768 21.9439 54.6063 21.5106 54.8139C21.0601 55.0225 20.523 55.1263 20.0373 55.092C19.5525 55.0568 19.0325 54.8835 18.6164 54.6406C18.2002 54.3806 17.8021 53.9996 17.5592 53.5835C17.3164 53.1673 17.1602 52.6473 17.1259 52.1625C17.0907 51.6768 17.1954 51.1225 17.3859 50.6892C17.5764 50.2559 17.923 49.8226 18.304 49.5274C18.6859 49.2331 19.1887 48.9902 19.6735 48.9036C20.142 48.8169 20.6963 48.8521 21.164 48.9902C21.6325 49.1292 22.4468 49.7702 22.4468 49.7702" fill="white"/>
</mask>
<g mask="url(#mask19_3_2)">
<path d="M16.4326 48.2102H23.9896V55.7853H16.4326V48.2102Z" fill="#009999"/>
</g>
</g>
<mask id="mask20_3_2" style="mask-type:luminance" maskUnits="userSpaceOnUse" x="19" y="46" width="8" height="7">
<path d="M19.9668 46.5085H26.2879V52.8242H19.9668V46.5085Z" fill="white"/>
</mask>
<g mask="url(#mask20_3_2)">
<mask id="mask21_3_2" style="mask-type:luminance" maskUnits="userSpaceOnUse" x="20" y="46" width="7" height="7">
<path d="M23.1402 46.5464C24.4574 46.8064 24.7697 46.9797 25.0297 47.1873C25.2897 47.3959 25.5326 47.6387 25.723 47.9159C25.9135 48.193 26.0697 48.5054 26.1564 48.834C26.243 49.1463 26.2773 49.5102 26.2602 49.8397C26.243 50.1692 26.1564 50.5158 26.0354 50.8273C25.9135 51.1396 25.723 51.4339 25.5154 51.6939C25.3069 51.9368 25.0297 52.1625 24.7526 52.3358C24.4754 52.5091 24.1459 52.6473 23.8164 52.7168C23.4869 52.7863 23.1402 52.8034 22.8107 52.7691C22.4821 52.7339 22.1355 52.6301 21.8403 52.492C21.5288 52.353 21.2336 52.1625 20.9908 51.9368C20.7488 51.712 20.5403 51.4168 20.3841 51.1225C20.2288 50.8273 20.107 50.4987 20.0555 50.1692C20.0031 49.8397 20.0031 49.493 20.0555 49.1635C20.107 48.834 20.2288 48.5054 20.3841 48.2102C20.5403 47.9159 20.7488 47.6207 20.9908 47.3959C21.2336 47.1702 21.5288 46.9626 21.8403 46.8235C22.1355 46.6854 22.4821 46.5987 22.8107 46.5635C23.1402 46.5292 23.4869 46.5464 23.8164 46.6159C24.1459 46.6854 24.4754 46.8235 24.7526 46.9969C25.0297 47.1702 25.3069 47.3959 25.5154 47.6387C25.723 47.8987 25.9135 48.193 26.0354 48.5054C26.1564 48.8168 26.243 49.1635 26.2602 49.493C26.2773 49.8225 26.243 50.1863 26.1564 50.4987C26.0697 50.8273 25.9135 51.1396 25.723 51.4168C25.5326 51.6939 25.2897 51.9368 25.0297 52.1453C24.7697 52.353 24.4574 52.5263 24.1459 52.6301C23.8336 52.7339 23.5041 52.8034 23.1402 52.7863C22.6898 52.7691 22.1174 52.6653 21.6841 52.4396C21.2508 52.2139 20.8174 51.7806 20.5574 51.4691C20.3841 51.2435 20.2803 51.0873 20.1936 50.8101C20.0727 50.4292 19.986 49.7187 20.0031 49.3197C20.0203 49.0254 20.0555 48.852 20.1765 48.592C20.3327 48.2102 20.7136 47.6387 21.0088 47.3435C21.2165 47.1359 21.3726 47.0321 21.6326 46.9102C21.9964 46.7369 23.0707 46.5464 23.0707 46.5464" fill="white"/>
</mask>
<g mask="url(#mask21_3_2)">
<path d="M19.3096 45.8531H26.9533V53.4796H19.3096V45.8531Z" fill="#009999"/>
</g>
</g>
<mask id="mask22_3_2" style="mask-type:luminance" maskUnits="userSpaceOnUse" x="14" y="50" width="3" height="3">
<path d="M14.5557 50.6865H16.6104V52.8152H14.5557V50.6865Z" fill="white"/>
</mask>
<g mask="url(#mask22_3_2)">
<mask id="mask23_3_2" style="mask-type:luminance" maskUnits="userSpaceOnUse" x="14" y="50" width="3" height="3">
<path d="M16.6055 51.4168C16.3456 52.5263 16.1894 52.613 16.0332 52.6825C15.8951 52.752 15.7217 52.8035 15.5484 52.7692C15.3056 52.7168 14.8722 52.5092 14.7161 52.2663C14.5599 52.0235 14.5951 51.5387 14.6637 51.2959C14.7161 51.1225 14.837 51.0187 14.9589 50.914C15.0799 50.8102 15.2361 50.7235 15.4265 50.7063C15.6865 50.6892 16.3456 50.9835 16.3456 50.9835" fill="white"/>
</mask>
<g mask="url(#mask23_3_2)">
<path d="M13.9707 50.013H17.2992V53.4625H13.9707V50.013Z" fill="#009999"/>
</g>
</g>
<mask id="mask24_3_2" style="mask-type:luminance" maskUnits="userSpaceOnUse" x="14" y="49" width="3" height="3">
<path d="M14.9639 49.1752H16.9752V51.248H14.9639V49.1752Z" fill="white"/>
</mask>
<g mask="url(#mask24_3_2)">
<mask id="mask25_3_2" style="mask-type:luminance" maskUnits="userSpaceOnUse" x="14" y="49" width="3" height="3">
<path d="M16.9694 49.9263C16.9351 50.6539 16.6751 51.053 16.4151 51.1739C16.1551 51.2958 15.6695 51.2263 15.4438 51.1225C15.2885 51.053 15.1666 50.932 15.0971 50.7587C14.9933 50.533 14.959 50.0473 15.0285 49.8053C15.08 49.632 15.219 49.5101 15.34 49.4063C15.4618 49.3025 15.6171 49.2158 15.7904 49.1987C16.0504 49.1806 16.7266 49.493 16.7266 49.493" fill="white"/>
</mask>
<g mask="url(#mask25_3_2)">
<path d="M14.335 48.5054H17.6968V51.8673H14.335V48.5054Z" fill="#009999"/>
</g>
</g>
<path fill-rule="evenodd" clip-rule="evenodd" d="M31.3478 41.399L7.54743 72.0767L7 71.652L30.8004 40.9743L31.3478 41.399Z" fill="#009999"/>
<path fill-rule="evenodd" clip-rule="evenodd" d="M40.1647 41.9768L10.694 80.3208L4.65139 75.6765L34.1221 37.3325L40.1647 41.9768Z" fill="white"/>
<mask id="mask26_3_2" style="mask-type:luminance" maskUnits="userSpaceOnUse" x="3" y="68" width="5" height="7">
<path d="M3.16992 68.8455H7.55734V74.8191H3.16992V68.8455Z" fill="white"/>
</mask>
<g mask="url(#mask26_3_2)">
<mask id="mask27_3_2" style="mask-type:luminance" maskUnits="userSpaceOnUse" x="3" y="68" width="5" height="7">
<path d="M5.36363 74.8191L7.55734 68.8455H3.16992L5.36363 74.8191Z" fill="white"/>
</mask>
<g mask="url(#mask27_3_2)">
<path d="M3.16992 68.8455H7.55734V74.8191H3.16992V68.8455Z" fill="white"/>
</g>
</g>
<mask id="mask28_3_2" style="mask-type:luminance" maskUnits="userSpaceOnUse" x="5" y="40" width="23" height="35">
<path d="M5.25684 40.1548H27.6742V74.8209H5.25684V40.1548Z" fill="white"/>
</mask>
<g mask="url(#mask28_3_2)">
<mask id="mask29_3_2" style="mask-type:luminance" maskUnits="userSpaceOnUse" x="1" y="40" width="27" height="38">
<path d="M19.2392 40.2587L27.5762 44.9377L9.5381 77.0805L1.2002 72.4015L19.2392 40.2587Z" fill="white"/>
</mask>
<g mask="url(#mask29_3_2)">
<mask id="mask30_3_2" style="mask-type:luminance" maskUnits="userSpaceOnUse" x="5" y="40" width="23" height="35">
<path d="M5.36914 74.7406L27.5762 44.9377L19.2392 40.2587L5.36914 74.7406Z" fill="white"/>
</mask>
<g mask="url(#mask30_3_2)">
<path d="M19.2392 40.2587L27.5762 44.9377L9.5381 77.0805L1.2002 72.4015L19.2392 40.2587Z" fill="#009999"/>
</g>
</g>
</g>
</g>
<defs>
<clipPath id="clip0_3_2">
<rect width="83.3719" height="89.2651" fill="white"/>
</clipPath>
</defs>
</svg>
